<svg width="12" height="12" viewBox="0 0 12 12" fill="none" xmlns="http://www.w3.org/2000/svg">
<path d="M10 4H2C1.72386 4 1.5 4.22386 1.5 4.5V5.5C1.5 5.77614 1.72386 6 2 6H10C10.2761 6 10.5 5.77614 10.5 5.5V4.5C10.5 4.22386 10.2761 4 10 4Z" stroke="#9810FA" stroke-linecap="round" stroke-linejoin="round"/>
<path d="M6 4V10.5" stroke="#9810FA" stroke-linecap="round" stroke-linejoin="round"/>
<path d="M9.5 6V9.5C9.5 9.76522 9.39464 10.0196 9.20711 10.2071C9.01957 10.3946 8.76522 10.5 8.5 10.5H3.5C3.23478 10.5 2.98043 10.3946 2.79289 10.2071C2.60536 10.0196 2.5 9.76522 2.5 9.5V6" stroke="#9810FA" stroke-linecap="round" stroke-linejoin="round"/>
<path d="M3.75 3.99997C3.41848 3.99997 3.10054 3.86828 2.86612 3.63386C2.6317 3.39944 2.5 3.0815 2.5 2.74997C2.5 2.41845 2.6317 2.10051 2.86612 1.86609C3.10054 1.63167 3.41848 1.49997 3.75 1.49997C4.23234 1.49157 4.70501 1.7256 5.10637 2.17155C5.50772 2.61751 5.81914 3.25468 6 3.99997C6.18086 3.25468 6.49228 2.61751 6.89363 2.17155C7.29499 1.7256 7.76766 1.49157 8.25 1.49997C8.58152 1.49997 8.89946 1.63167 9.13388 1.86609C9.3683 2.10051 9.5 2.41845 9.5 2.74997C9.5 3.0815 9.3683 3.39944 9.13388 3.63386C8.89946 3.86828 8.58152 3.99997 8.25 3.99997" stroke="#9810FA" stroke-linecap="round" stroke-linejoin="round"/>
</svg>
