<svg width="12" height="12" viewBox="0 0 12 12" fill="none" xmlns="http://www.w3.org/2000/svg">
<g clip-path="url(#clip0_7_1429)">
<path d="M2.25 8.24992C1.5 8.87992 1.25 10.7499 1.25 10.7499C1.25 10.7499 3.12 10.4999 3.75 9.74992C4.105 9.32992 4.1 8.68492 3.705 8.29492C3.51065 8.10942 3.25465 8.00223 2.98611 7.99393C2.71758 7.98562 2.45544 8.07679 2.25 8.24992Z" stroke="white" stroke-linecap="round" stroke-linejoin="round"/>
<path d="M6 7.49988L4.5 5.99988C4.76607 5.30959 5.1011 4.64791 5.5 4.02488C6.08259 3.09337 6.89381 2.3264 7.8565 1.79693C8.81919 1.26745 9.90133 0.993065 11 0.99988C11 2.35988 10.61 4.74988 8 6.49988C7.36844 6.89924 6.69842 7.23425 6 7.49988Z" stroke="white" stroke-linecap="round" stroke-linejoin="round"/>
<path d="M4.5 6.00001H2C2 6.00001 2.275 4.48501 3 4.00001C3.81 3.46001 5.5 4.00001 5.5 4.00001" stroke="white" stroke-linecap="round" stroke-linejoin="round"/>
<path d="M6 7.5V10C6 10 7.515 9.725 8 9C8.54 8.19 8 6.5 8 6.5" stroke="white" stroke-linecap="round" stroke-linejoin="round"/>
</g>
<defs>
<clipPath id="clip0_7_1429">
<rect width="12" height="12" fill="white"/>
</clipPath>
</defs>
</svg>
