<svg width="16" height="16" viewBox="0 0 16 16" fill="none" xmlns="http://www.w3.org/2000/svg">
<path d="M10.6666 8.66652L14.1486 10.9879C14.1988 11.0213 14.2571 11.0404 14.3174 11.0433C14.3776 11.0462 14.4375 11.0327 14.4906 11.0042C14.5438 10.9758 14.5882 10.9334 14.6192 10.8817C14.6502 10.83 14.6666 10.7708 14.6666 10.7105V5.24652C14.6666 5.18787 14.6512 5.13025 14.6218 5.07948C14.5924 5.02872 14.5502 4.9866 14.4993 4.95738C14.4485 4.92817 14.3908 4.91289 14.3322 4.91309C14.2735 4.91329 14.2159 4.92896 14.1653 4.95852L10.6666 6.99985" stroke="#6B6B6B" stroke-width="1.33333" stroke-linecap="round" stroke-linejoin="round"/>
<path d="M9.33337 4H2.66671C1.93033 4 1.33337 4.59695 1.33337 5.33333V10.6667C1.33337 11.403 1.93033 12 2.66671 12H9.33337C10.0698 12 10.6667 11.403 10.6667 10.6667V5.33333C10.6667 4.59695 10.0698 4 9.33337 4Z" stroke="#6B6B6B" stroke-width="1.33333" stroke-linecap="round" stroke-linejoin="round"/>
</svg>
