<?xml version="1.0" encoding="UTF-8"?>
<svg xmlns="http://www.w3.org/2000/svg" xmlns:xlink="http://www.w3.org/1999/xlink" style="display: none;">
  <!-- Generated SVG Sprite - 2026-07-09T11:32:19.689Z -->
  <!-- Total Icons: 84 -->
  <symbol id="ai" viewBox="0 0 20 20" fill="none">
    <g clip-path="url(#clip0_0_67)"><path d="M8.28083 12.9167C8.20644 12.6283 8.05612 12.3651 7.84552 12.1545C7.63491 11.9439 7.37173 11.7936 7.08333 11.7192L1.97083 10.4008C1.88361 10.3761 1.80684 10.3236 1.75218 10.2512C1.69751 10.1789 1.66794 10.0907 1.66794 10C1.66794 9.90934 1.69751 9.82115 1.75218 9.74881C1.80684 9.67647 1.88361 9.62394 1.97083 9.59918L7.08333 8.28001C7.37162 8.20569 7.63474 8.05549 7.84534 7.84505C8.05593 7.6346 8.20631 7.37159 8.28083 7.08335L9.59917 1.97085C9.62367 1.88328 9.67615 1.80613 9.7486 1.75118C9.82105 1.69622 9.90948 1.66647 10.0004 1.66647C10.0913 1.66647 10.1798 1.69622 10.2522 1.75118C10.3247 1.80613 10.3772 1.88328 10.4017 1.97085L11.7192 7.08335C11.7936 7.37174 11.9439 7.63493 12.1545 7.84553C12.3651 8.05613 12.6283 8.20645 12.9167 8.28085L18.0292 9.59835C18.1171 9.6226 18.1946 9.67502 18.2499 9.74758C18.3051 9.82013 18.335 9.90881 18.335 10C18.335 10.0912 18.3051 10.1799 18.2499 10.2524C18.1946 10.325 18.1171 10.3774 18.0292 10.4017L12.9167 11.7192C12.6283 11.7936 12.3651 11.9439 12.1545 12.1545C11.9439 12.3651 11.7936 12.6283 11.7192 12.9167L10.4008 18.0292C10.3763 18.1167 10.3238 18.1939 10.2514 18.2489C10.179 18.3038 10.0905 18.3336 9.99958 18.3336C9.90865 18.3336 9.82022 18.3038 9.74777 18.2489C9.67532 18.1939 9.62284 18.1167 9.59833 18.0292L8.28083 12.9167Z" stroke="currentColor" stroke-width="1.66667" stroke-linecap="round" stroke-linejoin="round"/><path d="M16.6667 2.5V5.83333" stroke="currentColor" stroke-width="1.66667" stroke-linecap="round" stroke-linejoin="round"/><path d="M18.3333 4.16666H15" stroke="currentColor" stroke-width="1.66667" stroke-linecap="round" stroke-linejoin="round"/><path d="M3.33333 14.1667V15.8333" stroke="currentColor" stroke-width="1.66667" stroke-linecap="round" stroke-linejoin="round"/><path d="M4.16667 15H2.5" stroke="currentColor" stroke-width="1.66667" stroke-linecap="round" stroke-linejoin="round"/></g><defs><clipPath id="clip0_0_67"><rect width="20" height="20" fill="white"/></clipPath></defs>
  </symbol>

  <symbol id="analytics" viewBox="0 0 16 16" fill="none">
    <path d="M2 2V12.6667C2 13.0203 2.14048 13.3594 2.39052 13.6095C2.64057 13.8595 2.97971 14 3.33333 14H14" stroke="currentColor" stroke-width="1.33333" stroke-linecap="round" stroke-linejoin="round"/><path d="M12 11.3333V6" stroke="currentColor" stroke-width="1.33333" stroke-linecap="round" stroke-linejoin="round"/><path d="M8.66663 11.3334V3.33337" stroke="currentColor" stroke-width="1.33333" stroke-linecap="round" stroke-linejoin="round"/><path d="M5.33337 11.3334V9.33337" stroke="currentColor" stroke-width="1.33333" stroke-linecap="round" stroke-linejoin="round"/>
  </symbol>

  <symbol id="arrow-left" viewBox="0 0 24 24" fill="none">
    <line x1="19" y1="12" x2="5" y2="12" stroke="currentColor" stroke-width="1.5" stroke-linecap="round" stroke-linejoin="round"/><polyline points="12 19 5 12 12 5" stroke="currentColor" stroke-width="1.5" stroke-linecap="round" stroke-linejoin="round"/>
  </symbol>

  <symbol id="arrow-right" viewBox="0 0 24 24" fill="none">
    <line x1="5" y1="12" x2="19" y2="12" stroke="currentColor" stroke-width="1.5" stroke-linecap="round" stroke-linejoin="round"/><polyline points="12 5 19 12 12 19" stroke="currentColor" stroke-width="1.5" stroke-linecap="round" stroke-linejoin="round"/>
  </symbol>

  <symbol id="arrow-top-right" viewBox="0 0 14 14" fill="none">
    <path d="M4.08337 4.08333H9.91671V9.91666" stroke="currentColor" stroke-width="1.16667" stroke-linecap="round" stroke-linejoin="round"/><path d="M4.08337 9.91666L9.91671 4.08333" stroke="currentColor" stroke-width="1.16667" stroke-linecap="round" stroke-linejoin="round"/>
  </symbol>

  <symbol id="attachment" viewBox="0 0 20 20" fill="none">
    <path d="M11.0283 16.8767L17.5 10.25" stroke="currentColor" stroke-width="1.66667" stroke-linecap="round" stroke-linejoin="round"/><path d="M13.3333 5.0001L6.32166 12.1551C6.00921 12.4676 5.83369 12.8915 5.83369 13.3334C5.83369 13.7754 6.00921 14.1992 6.32166 14.5118C6.63421 14.8242 7.05806 14.9997 7.5 14.9997C7.94194 14.9997 8.36578 14.8242 8.67833 14.5118L15.69 7.35677C16.3149 6.73168 16.6659 5.88398 16.6659 5.0001C16.6659 4.11622 16.3149 3.26853 15.69 2.64344C15.0649 2.01853 14.2172 1.66748 13.3333 1.66748C12.4494 1.66748 11.6018 2.01853 10.9767 2.64344L3.96416 9.7976C3.0264 10.7354 2.49957 12.0072 2.49957 13.3334C2.49957 14.6596 3.0264 15.9315 3.96416 16.8693C4.90192 17.807 6.1738 18.3339 7.5 18.3339C8.82619 18.3339 10.0981 17.807 11.0358 16.8693" stroke="currentColor" stroke-width="1.66667" stroke-linecap="round" stroke-linejoin="round"/>
  </symbol>

  <symbol id="back-arrow" viewBox="0 0 16 16" fill="none">
    <path d="M8.00004 12.6667L3.33337 8.00004L8.00004 3.33337" stroke="currentColor" stroke-width="1.33333" stroke-linecap="round" stroke-linejoin="round"/><path d="M12.6667 8H3.33337" stroke="currentColor" stroke-width="1.33333" stroke-linecap="round" stroke-linejoin="round"/>
  </symbol>

  <symbol id="bell" viewBox="0 0 24 24" fill="none" stroke="currentColor" stroke-width="2" stroke-linecap="round" stroke-linejoin="round">
    <path d="M18 8A6 6 0 0 0 6 8c0 7-3 9-3 9h18s-3-2-3-9"/><path d="M13.73 21a2 2 0 0 1-3.46 0"/>
  </symbol>

  <symbol id="calendar" viewBox="0 0 20 20" fill="none">
    <path d="M6.66667 1.66666V4.99999" stroke="currentColor" stroke-width="1.66667" stroke-linecap="round" stroke-linejoin="round"/><path d="M13.3333 1.66666V4.99999" stroke="currentColor" stroke-width="1.66667" stroke-linecap="round" stroke-linejoin="round"/><path d="M15.8333 3.33334H4.16667C3.24619 3.33334 2.5 4.07954 2.5 5.00001V16.6667C2.5 17.5872 3.24619 18.3333 4.16667 18.3333H15.8333C16.7538 18.3333 17.5 17.5872 17.5 16.6667V5.00001C17.5 4.07954 16.7538 3.33334 15.8333 3.33334Z" stroke="currentColor" stroke-width="1.66667" stroke-linecap="round" stroke-linejoin="round"/><path d="M2.5 8.33334H17.5" stroke="currentColor" stroke-width="1.66667" stroke-linecap="round" stroke-linejoin="round"/>
  </symbol>

  <symbol id="caret-down" viewBox="0 0 16 16" fill="none">
    <path d="M4 6L8 10L12 6" stroke="currentColor" stroke-width="1.33333" stroke-linecap="round" stroke-linejoin="round"/>
  </symbol>

  <symbol id="caret-left" viewBox="0 0 16 16" fill="none">
    <path d="M10 12L6 8L10 4" stroke="currentColor" stroke-width="1.33333" stroke-linecap="round" stroke-linejoin="round"/>
  </symbol>

  <symbol id="caret-right" viewBox="0 0 16 16" fill="none">
    <path d="M6 12L10 8L6 4" stroke="currentColor" stroke-width="1.33333" stroke-linecap="round" stroke-linejoin="round"/>
  </symbol>

  <symbol id="cart" viewBox="0 0 24 24" fill="none" stroke="currentColor" stroke-width="2" stroke-linecap="round" stroke-linejoin="round">
    <circle cx="8" cy="21" r="1"></circle><circle cx="19" cy="21" r="1"></circle><path d="M2.05 2.05h2l2.66 12.42a2 2 0 0 0 2 1.58h9.78a2 2 0 0 0 1.95-1.57l1.65-7.43H5.12"></path>
  </symbol>

  <symbol id="chart-bar" viewBox="0 0 24 24" fill="none" stroke="currentColor" stroke-width="2" stroke-linecap="round" stroke-linejoin="round">
    <line x1="18" y1="20" x2="18" y2="10"/><line x1="12" y1="20" x2="12" y2="4"/><line x1="6" y1="20" x2="6" y2="14"/>
  </symbol>

  <symbol id="check-circle" viewBox="0 0 24 24" fill="none" stroke="currentColor" stroke-width="2" stroke-linecap="round" stroke-linejoin="round">
    <circle cx="12" cy="12" r="10"></circle><path d="m9 12 2 2 4-4"></path>
  </symbol>

  <symbol id="check" viewBox="0 0 24 24" fill="none">
    <polyline points="20 6 9 17 4 12" stroke="currentColor" stroke-width="1.5" stroke-linecap="round" stroke-linejoin="round"/>
  </symbol>

  <symbol id="checklist" viewBox="0 0 20 20" fill="none">
    <path d="M12.5 1.66663H7.49999C7.03975 1.66663 6.66666 2.03972 6.66666 2.49996V4.16663C6.66666 4.62686 7.03975 4.99996 7.49999 4.99996H12.5C12.9602 4.99996 13.3333 4.62686 13.3333 4.16663V2.49996C13.3333 2.03972 12.9602 1.66663 12.5 1.66663Z" stroke="currentColor" stroke-width="1.66667" stroke-linecap="round" stroke-linejoin="round"/><path d="M13.3333 3.33337H15C15.442 3.33337 15.866 3.50897 16.1785 3.82153C16.4911 4.13409 16.6667 4.55801 16.6667 5.00004V16.6667C16.6667 17.1087 16.4911 17.5327 16.1785 17.8452C15.866 18.1578 15.442 18.3334 15 18.3334H5.00001C4.55798 18.3334 4.13406 18.1578 3.8215 17.8452C3.50894 17.5327 3.33334 17.1087 3.33334 16.6667V5.00004C3.33334 4.55801 3.50894 4.13409 3.8215 3.82153C4.13406 3.50897 4.55798 3.33337 5.00001 3.33337H6.66668" stroke="currentColor" stroke-width="1.66667" stroke-linecap="round" stroke-linejoin="round"/><path d="M10 9.16663H13.3333" stroke="currentColor" stroke-width="1.66667" stroke-linecap="round" stroke-linejoin="round"/><path d="M10 13.3334H13.3333" stroke="currentColor" stroke-width="1.66667" stroke-linecap="round" stroke-linejoin="round"/><path d="M6.66666 9.16663H6.67499" stroke="currentColor" stroke-width="1.66667" stroke-linecap="round" stroke-linejoin="round"/><path d="M6.66666 13.3334H6.67499" stroke="currentColor" stroke-width="1.66667" stroke-linecap="round" stroke-linejoin="round"/>
  </symbol>

  <symbol id="clients" viewBox="0 0 20 20" fill="none">
    <path d="M13.3333 17.5V15.8333C13.3333 14.9493 12.9821 14.1014 12.357 13.4763C11.7319 12.8512 10.8841 12.5 10 12.5H5C4.11594 12.5 3.2681 12.8512 2.64298 13.4763C2.01786 14.1014 1.66667 14.9493 1.66667 15.8333V17.5" stroke="currentColor" stroke-width="1.66667" stroke-linecap="round" stroke-linejoin="round"/><path d="M7.5 9.16667C9.34095 9.16667 10.8333 7.67428 10.8333 5.83333C10.8333 3.99238 9.34095 2.5 7.5 2.5C5.65905 2.5 4.16667 3.99238 4.16667 5.83333C4.16667 7.67428 5.65905 9.16667 7.5 9.16667Z" stroke="currentColor" stroke-width="1.66667" stroke-linecap="round" stroke-linejoin="round"/><path d="M18.3333 17.5V15.8333C18.3328 15.0948 18.087 14.3773 17.6345 13.7936C17.182 13.2099 16.5484 12.793 15.8333 12.6083" stroke="currentColor" stroke-width="1.66667" stroke-linecap="round" stroke-linejoin="round"/><path d="M13.3333 2.60834C14.0503 2.79192 14.6859 3.20892 15.1397 3.7936C15.5935 4.37827 15.8399 5.09736 15.8399 5.8375C15.8399 6.57765 15.5935 7.29674 15.1397 7.88141C14.6859 8.46609 14.0503 8.88309 13.3333 9.06667" stroke="currentColor" stroke-width="1.66667" stroke-linecap="round" stroke-linejoin="round"/>
  </symbol>

  <symbol id="clipboard-list" viewBox="0 0 24 24" fill="none" stroke="currentColor" stroke-width="2" stroke-linecap="round" stroke-linejoin="round">
    <rect width="8" height="4" x="8" y="2" rx="1" ry="1"></rect><path d="M16 4h2a2 2 0 0 1 2 2v14a2 2 0 0 1-2 2H6a2 2 0 0 1-2-2V6a2 2 0 0 1 2-2h2"></path><path d="M12 11h4"></path><path d="M12 16h4"></path><path d="M8 11h.01"></path><path d="M8 16h.01"></path>
  </symbol>

  <symbol id="clock" viewBox="0 0 16 16" fill="none">
    <g clip-path="url(#clip0_7_226)"><path d="M7.99998 14.6666C11.6819 14.6666 14.6666 11.6819 14.6666 7.99998C14.6666 4.31808 11.6819 1.33331 7.99998 1.33331C4.31808 1.33331 1.33331 4.31808 1.33331 7.99998C1.33331 11.6819 4.31808 14.6666 7.99998 14.6666Z" stroke="currentColor" stroke-width="1.33333" stroke-linecap="round" stroke-linejoin="round"/><path d="M8 4V8L10.6667 9.33333" stroke="currentColor" stroke-width="1.33333" stroke-linecap="round" stroke-linejoin="round"/></g><defs><clipPath id="clip0_7_226"><rect width="16" height="16" fill="white"/></clipPath></defs>
  </symbol>

  <symbol id="close" viewBox="0 0 24 24" fill="none">
    <line x1="18" y1="6" x2="6" y2="18" stroke="currentColor" stroke-width="1.5" stroke-linecap="round" stroke-linejoin="round"/><line x1="6" y1="6" x2="18" y2="18" stroke="currentColor" stroke-width="1.5" stroke-linecap="round" stroke-linejoin="round"/>
  </symbol>

  <symbol id="copy" viewBox="0 0 24 24" fill="none" stroke="currentColor" stroke-width="2" stroke-linecap="round" stroke-linejoin="round">
    <rect width="14" height="14" x="8" y="8" rx="2" ry="2"></rect><path d="M4 16c-1.1 0-2-.9-2-2V4c0-1.1.9-2 2-2h10c1.1 0 2 .9 2 2"></path>
  </symbol>

  <symbol id="dashboard" viewBox="0 0 20 20" fill="none">
    <path d="M7.5 2.5H3.33333C2.8731 2.5 2.5 2.8731 2.5 3.33333V9.16667C2.5 9.6269 2.8731 10 3.33333 10H7.5C7.96024 10 8.33333 9.6269 8.33333 9.16667V3.33333C8.33333 2.8731 7.96024 2.5 7.5 2.5Z" stroke="currentColor" stroke-width="1.66667" stroke-linecap="round" stroke-linejoin="round"/><path d="M16.6667 2.5H12.5C12.0398 2.5 11.6667 2.8731 11.6667 3.33333V5.83333C11.6667 6.29357 12.0398 6.66667 12.5 6.66667H16.6667C17.1269 6.66667 17.5 6.29357 17.5 5.83333V3.33333C17.5 2.8731 17.1269 2.5 16.6667 2.5Z" stroke="currentColor" stroke-width="1.66667" stroke-linecap="round" stroke-linejoin="round"/><path d="M16.6667 10H12.5C12.0398 10 11.6667 10.3731 11.6667 10.8333V16.6667C11.6667 17.1269 12.0398 17.5 12.5 17.5H16.6667C17.1269 17.5 17.5 17.1269 17.5 16.6667V10.8333C17.5 10.3731 17.1269 10 16.6667 10Z" stroke="currentColor" stroke-width="1.66667" stroke-linecap="round" stroke-linejoin="round"/><path d="M7.5 13.3333H3.33333C2.8731 13.3333 2.5 13.7064 2.5 14.1667V16.6667C2.5 17.1269 2.8731 17.5 3.33333 17.5H7.5C7.96024 17.5 8.33333 17.1269 8.33333 16.6667V14.1667C8.33333 13.7064 7.96024 13.3333 7.5 13.3333Z" stroke="currentColor" stroke-width="1.66667" stroke-linecap="round" stroke-linejoin="round"/>
  </symbol>

  <symbol id="default-image" viewBox="0 0 24 24" fill="none">
    <rect x="3" y="3" width="18" height="18" rx="2" stroke="currentColor" stroke-width="2" stroke-linecap="round" stroke-linejoin="round"/><circle cx="8.5" cy="8.5" r="1.5" fill="currentColor"/><path d="M21 15L16 10L5 21" stroke="currentColor" stroke-width="2" stroke-linecap="round" stroke-linejoin="round"/><path d="M19 21L14 16L12 18" stroke="currentColor" stroke-width="2" stroke-linecap="round" stroke-linejoin="round"/>
  </symbol>

  <symbol id="diamond" viewBox="0 0 16 16" fill="none">
    <g clip-path="url(#clip0_7_424)"><path d="M4.00001 2H12L14.6667 6L8.00001 14.6667L1.33334 6L4.00001 2Z" stroke="currentColor" stroke-width="1.33333" stroke-linecap="round" stroke-linejoin="round"/><path d="M7.33334 2L5.33334 6L8.00001 14.6667L10.6667 6L8.66668 2" stroke="currentColor" stroke-width="1.33333" stroke-linecap="round" stroke-linejoin="round"/><path d="M1.33334 6H14.6667" stroke="currentColor" stroke-width="1.33333" stroke-linecap="round" stroke-linejoin="round"/></g><defs><clipPath id="clip0_7_424"><rect width="16" height="16" fill="white"/></clipPath></defs>
  </symbol>

  <symbol id="dollar" viewBox="0 0 20 20" fill="none">
    <path d="M10 1.66667V18.3333" stroke="currentColor" stroke-width="1.66667" stroke-linecap="round" stroke-linejoin="round"/><path d="M14.1667 4.16667H7.91667C7.14312 4.16667 6.40125 4.47396 5.85427 5.02094C5.30729 5.56792 5 6.30979 5 7.08334C5 7.85689 5.30729 8.59875 5.85427 9.14573C6.40125 9.69271 7.14312 10 7.91667 10H12.0833C12.8569 10 13.5987 10.3073 14.1457 10.8543C14.6927 11.4013 15 12.1431 15 12.9167C15 13.6902 14.6927 14.4321 14.1457 14.9791C13.5987 15.526 12.8569 15.8333 12.0833 15.8333H5" stroke="currentColor" stroke-width="1.66667" stroke-linecap="round" stroke-linejoin="round"/>
  </symbol>

  <symbol id="double-check" viewBox="0 0 12 12" fill="none">
    <path d="M9 3L3.5 8.5L1 6" stroke="currentColor" stroke-linecap="round" stroke-linejoin="round"/><path d="M11 5L7.25 8.75L6.5 8" stroke="currentColor" stroke-linecap="round" stroke-linejoin="round"/>
  </symbol>

  <symbol id="download" viewBox="0 0 24 24" fill="none" stroke="currentColor" stroke-width="2" stroke-linecap="round" stroke-linejoin="round">
    <path d="M21 15v4a2 2 0 0 1-2 2H5a2 2 0 0 1-2-2v-4"></path><polyline points="7 10 12 15 17 10"></polyline><line x1="12" y1="15" x2="12" y2="3"></line>
  </symbol>

  <symbol id="edit" viewBox="0 0 16 16" fill="none">
    <path d="M8 2H3.33333C2.97971 2 2.64057 2.14048 2.39052 2.39052C2.14048 2.64057 2 2.97971 2 3.33333V12.6667C2 13.0203 2.14048 13.3594 2.39052 13.6095C2.64057 13.8595 2.97971 14 3.33333 14H12.6667C13.0203 14 13.3594 13.8595 13.6095 13.6095C13.8595 13.3594 14 13.0203 14 12.6667V8" stroke="currentColor" stroke-width="1.33333" stroke-linecap="round" stroke-linejoin="round"/><path d="M12.25 1.75C12.5152 1.48478 12.8749 1.33578 13.25 1.33578C13.6251 1.33578 13.9848 1.48478 14.25 1.75C14.5152 2.01522 14.6642 2.37493 14.6642 2.75C14.6642 3.12507 14.5152 3.48478 14.25 3.75L8.24136 9.75933C8.08305 9.9175 7.88749 10.0333 7.67269 10.096L5.75735 10.656C5.69999 10.6727 5.63918 10.6737 5.58129 10.6589C5.52341 10.6441 5.47057 10.614 5.42832 10.5717C5.38607 10.5294 5.35595 10.4766 5.34112 10.4187C5.32629 10.3608 5.32729 10.3 5.34402 10.2427L5.90402 8.32733C5.96704 8.1127 6.08304 7.91737 6.24136 7.75933L12.25 1.75Z" stroke="currentColor" stroke-width="1.33333" stroke-linecap="round" stroke-linejoin="round"/>
  </symbol>

  <symbol id="email" viewBox="0 0 16 16" fill="none">
    <g clip-path="url(#clip0_7_128)"><path d="M13.3333 2.66667H2.66668C1.9303 2.66667 1.33334 3.26363 1.33334 4.00001V12C1.33334 12.7364 1.9303 13.3333 2.66668 13.3333H13.3333C14.0697 13.3333 14.6667 12.7364 14.6667 12V4.00001C14.6667 3.26363 14.0697 2.66667 13.3333 2.66667Z" stroke="currentColor" stroke-width="1.33333" stroke-linecap="round" stroke-linejoin="round"/><path d="M14.6667 4.66667L8.68668 8.46667C8.48086 8.59562 8.24289 8.66401 8.00001 8.66401C7.75713 8.66401 7.51916 8.59562 7.31334 8.46667L1.33334 4.66667" stroke="currentColor" stroke-width="1.33333" stroke-linecap="round" stroke-linejoin="round"/></g><defs><clipPath id="clip0_7_128"><rect width="16" height="16" fill="white"/></clipPath></defs>
  </symbol>

  <symbol id="events" viewBox="0 0 20 20" fill="none">
    <path d="M2.5 8.33334H17.5V5.00001C17.5 4.55798 17.3244 4.13406 17.0118 3.8215C16.6993 3.50894 16.2754 3.33334 15.8333 3.33334H4.16667C3.72464 3.33334 3.30072 3.50894 2.98816 3.8215C2.67559 4.13406 2.5 4.55798 2.5 5.00001V16.6667C2.5 17.1087 2.67559 17.5326 2.98816 17.8452C3.30072 18.1577 3.72464 18.3333 4.16667 18.3333H10" stroke="currentColor" stroke-width="1.66667" stroke-linecap="round" stroke-linejoin="round"/><path d="M6.66667 1.66666V4.99999" stroke="currentColor" stroke-width="1.66667" stroke-linecap="round" stroke-linejoin="round"/><path d="M13.3333 1.66666V4.99999" stroke="currentColor" stroke-width="1.66667" stroke-linecap="round" stroke-linejoin="round"/><path d="M17.7417 12.25C17.4577 11.9675 17.0963 11.7755 16.7032 11.6983C16.3101 11.6212 15.903 11.6624 15.5333 11.8167C15.2833 11.9167 15.0583 12.0667 14.8667 12.2583L14.5833 12.5417L14.2917 12.2583C14.0086 11.9744 13.6477 11.7808 13.2546 11.7022C12.8614 11.6236 12.4538 11.6634 12.0833 11.8167C11.8333 11.9167 11.6167 12.0667 11.425 12.2583C10.6333 13.0417 10.5917 14.3667 11.5917 15.375L14.5833 18.3333L17.5833 15.375C18.5833 14.3667 18.5333 13.0417 17.7417 12.2583V12.25Z" stroke="currentColor" stroke-width="1.66667" stroke-linecap="round" stroke-linejoin="round"/>
  </symbol>

  <symbol id="external-link" viewBox="0 0 24 24" fill="none" stroke="currentColor" stroke-width="2" stroke-linecap="round" stroke-linejoin="round">
    <path d="M18 13v6a2 2 0 0 1-2 2H5a2 2 0 0 1-2-2V8a2 2 0 0 1 2-2h6"></path><polyline points="15 3 21 3 21 9"></polyline><line x1="10" y1="14" x2="21" y2="3"></line>
  </symbol>

  <symbol id="eye-off" viewBox="0 0 24 24" fill="none" stroke="currentColor" stroke-width="2" stroke-linecap="round" stroke-linejoin="round">
    <path d="M17.94 17.94A10.07 10.07 0 0 1 12 20c-7 0-11-8-11-8a18.45 18.45 0 0 1 5.06-5.94"/><path d="M9.9 4.24A9.12 9.12 0 0 1 12 4c7 0 11 8 11 8a18.5 18.5 0 0 1-2.16 3.19"/><line x1="1" y1="1" x2="23" y2="23"/>
  </symbol>

  <symbol id="eye" viewBox="0 0 24 24" fill="none" stroke="currentColor" stroke-width="2" stroke-linecap="round" stroke-linejoin="round">
    <path d="M1 12s4-8 11-8 11 8 11 8-4 8-11 8-11-8-11-8z"/><circle cx="12" cy="12" r="3"/>
  </symbol>

  <symbol id="favorite" viewBox="0 0 16 16" fill="none">
    <path d="M12.6666 9.33333C13.66 8.36 14.6666 7.19333 14.6666 5.66667C14.6666 4.69421 14.2803 3.76158 13.5927 3.07394C12.9051 2.38631 11.9724 2 11 2C9.82665 2 8.99998 2.33333 7.99998 3.33333C6.99998 2.33333 6.17331 2 4.99998 2C4.02752 2 3.09489 2.38631 2.40725 3.07394C1.71962 3.76158 1.33331 4.69421 1.33331 5.66667C1.33331 7.2 2.33331 8.36667 3.33331 9.33333L7.99998 14L12.6666 9.33333Z" stroke="currentColor" stroke-width="1.33333" stroke-linecap="round" stroke-linejoin="round"/>
  </symbol>

  <symbol id="filter" viewBox="0 0 24 24" fill="none" stroke="currentColor" stroke-width="2" stroke-linecap="round" stroke-linejoin="round">
    <polygon points="22 3 2 3 10 12.46 10 19 14 21 14 12.46 22 3"></polygon>
  </symbol>

  <symbol id="folder" viewBox="0 0 24 24" fill="none" stroke="currentColor" stroke-width="2" stroke-linecap="round" stroke-linejoin="round">
    <path d="M22 19a2 2 0 0 1-2 2H4a2 2 0 0 1-2-2V5a2 2 0 0 1 2-2h5l2 3h9a2 2 0 0 1 2 2z"/>
  </symbol>

  <symbol id="gift" viewBox="0 0 12 12" fill="none">
    <path d="M10 4H2C1.72386 4 1.5 4.22386 1.5 4.5V5.5C1.5 5.77614 1.72386 6 2 6H10C10.2761 6 10.5 5.77614 10.5 5.5V4.5C10.5 4.22386 10.2761 4 10 4Z" stroke="currentColor" stroke-linecap="round" stroke-linejoin="round"/><path d="M6 4V10.5" stroke="currentColor" stroke-linecap="round" stroke-linejoin="round"/><path d="M9.5 6V9.5C9.5 9.76522 9.39464 10.0196 9.20711 10.2071C9.01957 10.3946 8.76522 10.5 8.5 10.5H3.5C3.23478 10.5 2.98043 10.3946 2.79289 10.2071C2.60536 10.0196 2.5 9.76522 2.5 9.5V6" stroke="currentColor" stroke-linecap="round" stroke-linejoin="round"/><path d="M3.75 3.99997C3.41848 3.99997 3.10054 3.86828 2.86612 3.63386C2.6317 3.39944 2.5 3.0815 2.5 2.74997C2.5 2.41845 2.6317 2.10051 2.86612 1.86609C3.10054 1.63167 3.41848 1.49997 3.75 1.49997C4.23234 1.49157 4.70501 1.7256 5.10637 2.17155C5.50772 2.61751 5.81914 3.25468 6 3.99997C6.18086 3.25468 6.49228 2.61751 6.89363 2.17155C7.29499 1.7256 7.76766 1.49157 8.25 1.49997C8.58152 1.49997 8.89946 1.63167 9.13388 1.86609C9.3683 2.10051 9.5 2.41845 9.5 2.74997C9.5 3.0815 9.3683 3.39944 9.13388 3.63386C8.89946 3.86828 8.58152 3.99997 8.25 3.99997" stroke="currentColor" stroke-linecap="round" stroke-linejoin="round"/>
  </symbol>

  <symbol id="graph" viewBox="0 0 20 20" fill="none">
    <path d="M18.3333 5.83333L11.25 12.9167L7.08329 8.74999L1.66663 14.1667" stroke="currentColor" stroke-width="1.66667" stroke-linecap="round" stroke-linejoin="round"/><path d="M13.3334 5.83333H18.3334V10.8333" stroke="currentColor" stroke-width="1.66667" stroke-linecap="round" stroke-linejoin="round"/>
  </symbol>

  <symbol id="grid" viewBox="0 0 16 16" fill="none">
    <path d="M12.6667 2H3.33333C2.59695 2 2 2.59695 2 3.33333V12.6667C2 13.403 2.59695 14 3.33333 14H12.6667C13.403 14 14 13.403 14 12.6667V3.33333C14 2.59695 13.403 2 12.6667 2Z" stroke="currentColor" stroke-width="1.33333" stroke-linecap="round" stroke-linejoin="round"/><path d="M2 6H14" stroke="currentColor" stroke-width="1.33333" stroke-linecap="round" stroke-linejoin="round"/><path d="M2 10H14" stroke="currentColor" stroke-width="1.33333" stroke-linecap="round" stroke-linejoin="round"/><path d="M6 2V14" stroke="currentColor" stroke-width="1.33333" stroke-linecap="round" stroke-linejoin="round"/><path d="M10 2V14" stroke="currentColor" stroke-width="1.33333" stroke-linecap="round" stroke-linejoin="round"/>
  </symbol>

  <symbol id="home" viewBox="0 0 24 24" fill="none" stroke="currentColor" stroke-width="2" stroke-linecap="round" stroke-linejoin="round">
    <path d="m3 9 9-7 9 7v11a2 2 0 0 1-2 2H5a2 2 0 0 1-2-2z"/><polyline points="9 22 9 12 15 12 15 22"/>
  </symbol>

  <symbol id="info" viewBox="0 0 24 24" fill="none">
    <circle cx="12" cy="12" r="10" stroke="currentColor" stroke-width="2"/><path d="M12 16V12" stroke="currentColor" stroke-width="2" stroke-linecap="round"/><path d="M12 8H12.01" stroke="currentColor" stroke-width="2" stroke-linecap="round"/>
  </symbol>

  <symbol id="inventory" viewBox="0 0 24 24" fill="none" stroke="currentColor" stroke-width="2" stroke-linecap="round" stroke-linejoin="round">
    <path d="M11 21.73a2 2 0 0 0 2 0l7-4A2 2 0 0 0 21 16V8a2 2 0 0 0-1-1.73l-7-4a2 2 0 0 0-2 0l-7 4A2 2 0 0 0 3 8v8a2 2 0 0 0 1 1.73z"></path><path d="M12 22V12"></path><polyline points="3.29 7 12 12 20.71 7"></polyline><path d="m7.5 4.27 9 5.15"></path>
  </symbol>

  <symbol id="job" viewBox="0 0 14 14" fill="none">
    <g clip-path="url(#clip0_10_4113)"><path d="M9.33329 11.6667V2.33335C9.33329 2.02393 9.21038 1.72719 8.99158 1.5084C8.77279 1.2896 8.47605 1.16669 8.16663 1.16669H5.83329C5.52387 1.16669 5.22713 1.2896 5.00833 1.5084C4.78954 1.72719 4.66663 2.02393 4.66663 2.33335V11.6667" stroke="currentColor" stroke-width="1.16667" stroke-linecap="round" stroke-linejoin="round"/><path d="M11.6666 3.5H2.33329C1.68896 3.5 1.16663 4.02233 1.16663 4.66667V10.5C1.16663 11.1443 1.68896 11.6667 2.33329 11.6667H11.6666C12.311 11.6667 12.8333 11.1443 12.8333 10.5V4.66667C12.8333 4.02233 12.311 3.5 11.6666 3.5Z" stroke="currentColor" stroke-width="1.16667" stroke-linecap="round" stroke-linejoin="round"/></g><defs><clipPath id="clip0_10_4113"><rect width="14" height="14" fill="white"/></clipPath></defs>
  </symbol>

  <symbol id="launch" viewBox="0 0 12 12" fill="none">
    <g clip-path="url(#clip0_7_1429)"><path d="M2.25 8.24992C1.5 8.87992 1.25 10.7499 1.25 10.7499C1.25 10.7499 3.12 10.4999 3.75 9.74992C4.105 9.32992 4.1 8.68492 3.705 8.29492C3.51065 8.10942 3.25465 8.00223 2.98611 7.99393C2.71758 7.98562 2.45544 8.07679 2.25 8.24992Z" stroke="currentColor" stroke-linecap="round" stroke-linejoin="round"/><path d="M6 7.49988L4.5 5.99988C4.76607 5.30959 5.1011 4.64791 5.5 4.02488C6.08259 3.09337 6.89381 2.3264 7.8565 1.79693C8.81919 1.26745 9.90133 0.993065 11 0.99988C11 2.35988 10.61 4.74988 8 6.49988C7.36844 6.89924 6.69842 7.23425 6 7.49988Z" stroke="currentColor" stroke-linecap="round" stroke-linejoin="round"/><path d="M4.5 6.00001H2C2 6.00001 2.275 4.48501 3 4.00001C3.81 3.46001 5.5 4.00001 5.5 4.00001" stroke="currentColor" stroke-linecap="round" stroke-linejoin="round"/><path d="M6 7.5V10C6 10 7.515 9.725 8 9C8.54 8.19 8 6.5 8 6.5" stroke="currentColor" stroke-linecap="round" stroke-linejoin="round"/></g><defs><clipPath id="clip0_7_1429"><rect width="12" height="12" fill="white"/></clipPath></defs>
  </symbol>

  <symbol id="layaway" viewBox="0 0 24 24" fill="none" stroke="currentColor" stroke-width="2" stroke-linecap="round" stroke-linejoin="round">
    <polyline points="21 8 21 21 3 21 3 8"/><rect x="1" y="3" width="22" height="5"/><line x1="10" y1="12" x2="14" y2="12"/>
  </symbol>

  <symbol id="list" viewBox="0 0 16 16" fill="none">
    <path d="M2 8H2.00667" stroke="currentColor" stroke-width="1.33333" stroke-linecap="round" stroke-linejoin="round"/><path d="M2 12H2.00667" stroke="currentColor" stroke-width="1.33333" stroke-linecap="round" stroke-linejoin="round"/><path d="M2 4H2.00667" stroke="currentColor" stroke-width="1.33333" stroke-linecap="round" stroke-linejoin="round"/><path d="M5.33337 8H14" stroke="currentColor" stroke-width="1.33333" stroke-linecap="round" stroke-linejoin="round"/><path d="M5.33337 12H14" stroke="currentColor" stroke-width="1.33333" stroke-linecap="round" stroke-linejoin="round"/><path d="M5.33337 4H14" stroke="currentColor" stroke-width="1.33333" stroke-linecap="round" stroke-linejoin="round"/>
  </symbol>

  <symbol id="loader" viewBox="0 0 24 24" fill="none">
    <line x1="12" y1="2" x2="12" y2="6" stroke="currentColor" stroke-width="1.5" stroke-linecap="round" stroke-linejoin="round"/><line x1="12" y1="18" x2="12" y2="22" stroke="currentColor" stroke-width="1.5" stroke-linecap="round" stroke-linejoin="round"/><line x1="4.93" y1="4.93" x2="7.76" y2="7.76" stroke="currentColor" stroke-width="1.5" stroke-linecap="round" stroke-linejoin="round"/><line x1="16.24" y1="16.24" x2="19.07" y2="19.07" stroke="currentColor" stroke-width="1.5" stroke-linecap="round" stroke-linejoin="round"/><line x1="2" y1="12" x2="6" y2="12" stroke="currentColor" stroke-width="1.5" stroke-linecap="round" stroke-linejoin="round"/><line x1="18" y1="12" x2="22" y2="12" stroke="currentColor" stroke-width="1.5" stroke-linecap="round" stroke-linejoin="round"/><line x1="4.93" y1="19.07" x2="7.76" y2="16.24" stroke="currentColor" stroke-width="1.5" stroke-linecap="round" stroke-linejoin="round"/><line x1="16.24" y1="7.76" x2="19.07" y2="4.93" stroke="currentColor" stroke-width="1.5" stroke-linecap="round" stroke-linejoin="round"/>
  </symbol>

  <symbol id="location" viewBox="0 0 14 14" fill="none">
    <g clip-path="url(#clip0_7_1441)"><path d="M11.6666 5.83341C11.6666 8.746 8.43556 11.7793 7.35056 12.7162C7.24949 12.7922 7.12645 12.8333 6.99998 12.8333C6.87351 12.8333 6.75047 12.7922 6.6494 12.7162C5.5644 11.7793 2.33331 8.746 2.33331 5.83341C2.33331 4.59574 2.82498 3.40875 3.70015 2.53358C4.57532 1.65841 5.7623 1.16675 6.99998 1.16675C8.23766 1.16675 9.42464 1.65841 10.2998 2.53358C11.175 3.40875 11.6666 4.59574 11.6666 5.83341Z" stroke="currentColor" stroke-width="1.16667" stroke-linecap="round" stroke-linejoin="round"/><path d="M7 7.58325C7.9665 7.58325 8.75 6.79975 8.75 5.83325C8.75 4.86675 7.9665 4.08325 7 4.08325C6.0335 4.08325 5.25 4.86675 5.25 5.83325C5.25 6.79975 6.0335 7.58325 7 7.58325Z" stroke="currentColor" stroke-width="1.16667" stroke-linecap="round" stroke-linejoin="round"/></g><defs><clipPath id="clip0_7_1441"><rect width="14" height="14" fill="white"/></clipPath></defs>
  </symbol>

  <symbol id="logout" viewBox="0 0 24 24" fill="none">
    <path d="M9 21H5a2 2 0 0 1-2-2V5a2 2 0 0 1 2-2h4" stroke="currentColor" stroke-width="1.5" stroke-linecap="round" stroke-linejoin="round"/><polyline points="16 17 21 12 16 7" stroke="currentColor" stroke-width="1.5" stroke-linecap="round" stroke-linejoin="round"/><line x1="21" y1="12" x2="9" y2="12" stroke="currentColor" stroke-width="1.5" stroke-linecap="round" stroke-linejoin="round"/>
  </symbol>

  <symbol id="map-pin" viewBox="0 0 24 24" fill="none" stroke="currentColor" stroke-width="2" stroke-linecap="round" stroke-linejoin="round">
    <path d="M20 10c0 4.993-5.539 10.193-7.399 11.799a1 1 0 0 1-1.202 0C9.539 20.193 4 14.993 4 10a8 8 0 0 1 16 0"></path><circle cx="12" cy="10" r="3"></circle>
  </symbol>

  <symbol id="megaphone" viewBox="0 0 24 24" fill="none" stroke="currentColor" stroke-width="2" stroke-linecap="round" stroke-linejoin="round">
    <path d="m3 11 18-5v12L3 14v-3z"></path><path d="M11.6 16.8a3 3 0 1 1-5.8-1.6"></path>
  </symbol>

  <symbol id="menu" viewBox="0 0 24 24" fill="none">
    <line x1="3" y1="6" x2="21" y2="6" stroke="currentColor" stroke-width="2" stroke-linecap="round"/><line x1="3" y1="12" x2="21" y2="12" stroke="currentColor" stroke-width="2" stroke-linecap="round"/><line x1="3" y1="18" x2="21" y2="18" stroke="currentColor" stroke-width="2" stroke-linecap="round"/>
  </symbol>

  <symbol id="messages" viewBox="0 0 20 20" fill="none">
    <path d="M17.5 12.5C17.5 12.942 17.3244 13.366 17.0118 13.6785C16.6993 13.9911 16.2754 14.1667 15.8333 14.1667H5.83333L2.5 17.5V4.16667C2.5 3.72464 2.67559 3.30072 2.98816 2.98816C3.30072 2.67559 3.72464 2.5 4.16667 2.5H15.8333C16.2754 2.5 16.6993 2.67559 17.0118 2.98816C17.3244 3.30072 17.5 3.72464 17.5 4.16667V12.5Z" stroke="currentColor" stroke-width="1.66667" stroke-linecap="round" stroke-linejoin="round"/>
  </symbol>

  <symbol id="moon" viewBox="0 0 24 24" fill="none" stroke="currentColor" stroke-width="2" stroke-linecap="round" stroke-linejoin="round">
    <path d="M21 12.79A9 9 0 1 1 11.21 3 7 7 0 0 0 21 12.79z"/>
  </symbol>

  <symbol id="necklace" viewBox="0 0 24 24" fill="none" stroke="currentColor" stroke-width="2" stroke-linecap="round" stroke-linejoin="round">
    <path d="M5 5a7 7 0 0 0 14 0"/><circle cx="12" cy="17" r="3"/><path d="M12 12v2"/>
  </symbol>

  <symbol id="notification" viewBox="0 0 20 20" fill="none">
    <path d="M8.55664 17.5C8.70293 17.7533 8.91332 17.9637 9.16668 18.11C9.42003 18.2563 9.70743 18.3333 9.99997 18.3333C10.2925 18.3333 10.5799 18.2563 10.8333 18.11C11.0866 17.9637 11.297 17.7533 11.4433 17.5" stroke="currentColor" stroke-width="1.66667" stroke-linecap="round" stroke-linejoin="round"/><path d="M2.71833 12.7717C2.60947 12.891 2.53763 13.0394 2.51155 13.1988C2.48547 13.3582 2.50627 13.5217 2.57142 13.6695C2.63658 13.8173 2.74328 13.943 2.87855 14.0312C3.01381 14.1195 3.17182 14.1665 3.33333 14.1667H16.6667C16.8282 14.1667 16.9862 14.1199 17.1216 14.0318C17.2569 13.9437 17.3637 13.8181 17.4291 13.6704C17.4944 13.5227 17.5154 13.3592 17.4895 13.1998C17.4637 13.0404 17.392 12.892 17.2833 12.7725C16.175 11.63 15 10.4158 15 6.66667C15 5.34059 14.4732 4.06882 13.5355 3.13113C12.5979 2.19345 11.3261 1.66667 10 1.66667C8.67392 1.66667 7.40215 2.19345 6.46447 3.13113C5.52679 4.06882 5 5.34059 5 6.66667C5 10.4158 3.82417 11.63 2.71833 12.7717Z" stroke="currentColor" stroke-width="1.66667" stroke-linecap="round" stroke-linejoin="round"/>
  </symbol>

  <symbol id="paper-plane" viewBox="0 0 24 24" fill="none" stroke="currentColor" stroke-width="2" stroke-linecap="round" stroke-linejoin="round">
    <path d="M14.536 21.686a.5.5 0 0 0 .937-.024l6.5-19a.496.496 0 0 0-.635-.635l-19 6.5a.5.5 0 0 0-.024.937l7.93 3.18a2 2 0 0 1 1.112 1.11z"></path><path d="m21.854 2.147-10.94 10.939"></path>
  </symbol>

  <symbol id="pause" viewBox="0 0 24 24" fill="none" stroke="currentColor" stroke-width="2" stroke-linecap="round" stroke-linejoin="round">
    <rect x="10" y="2" width="12" height="12" rx="2"/><path d="M4 14a2 2 0 0 0 2 2h4v4a2 2 0 0 0 2 2h0"/><path d="M2 10a2 2 0 0 1 2-2h4V4a2 2 0 0 1 2-2h0"/>
  </symbol>

  <symbol id="phone" viewBox="0 0 16 16" fill="none">
    <g clip-path="url(#clip0_7_124)"><path d="M14.6667 11.28V13.28C14.6674 13.4657 14.6294 13.6494 14.555 13.8196C14.4806 13.9897 14.3715 14.1424 14.2347 14.2679C14.0979 14.3934 13.9364 14.489 13.7605 14.5485C13.5846 14.608 13.3983 14.63 13.2133 14.6133C11.1619 14.3904 9.19134 13.6894 7.46001 12.5667C5.84923 11.5431 4.48356 10.1774 3.46001 8.56667C2.33333 6.82747 1.63217 4.84733 1.41334 2.78667C1.39668 2.60231 1.41859 2.41651 1.47767 2.24108C1.53676 2.06566 1.63172 1.90446 1.75652 1.76775C1.88131 1.63103 2.03321 1.5218 2.20253 1.44701C2.37186 1.37222 2.5549 1.33351 2.74001 1.33333H4.74001C5.06354 1.33015 5.3772 1.44472 5.62251 1.65569C5.86783 1.86666 6.02806 2.15963 6.07334 2.48C6.15775 3.12004 6.31431 3.74848 6.54001 4.35333C6.6297 4.59195 6.64911 4.85127 6.59594 5.10059C6.54277 5.3499 6.41925 5.57874 6.24001 5.76L5.39334 6.60667C6.34238 8.2757 7.72431 9.65763 9.39334 10.6067L10.24 9.76C10.4213 9.58076 10.6501 9.45723 10.8994 9.40406C11.1487 9.35089 11.4081 9.3703 11.6467 9.46C12.2515 9.6857 12.88 9.84225 13.52 9.92667C13.8439 9.97235 14.1396 10.1355 14.351 10.385C14.5624 10.6345 14.6748 10.953 14.6667 11.28Z" stroke="currentColor" stroke-width="1.33333" stroke-linecap="round" stroke-linejoin="round"/></g><defs><clipPath id="clip0_7_124"><rect width="16" height="16" fill="white"/></clipPath></defs>
  </symbol>

  <symbol id="pinned" viewBox="0 0 24 24" fill="none" stroke="currentColor" stroke-width="2" stroke-linecap="round" stroke-linejoin="round">
    <path d="M12 17v5"/><path d="M9 10.76a2 2 0 0 1-1.11 1.79l-1.78.9A2 2 0 0 0 5 15.24V16a1 1 0 0 0 1 1h12a1 1 0 0 0 1-1v-.76a2 2 0 0 0-1.11-1.79l-1.78-.9A2 2 0 0 1 15 10.76V7a1 1 0 0 1 1-1 2 2 0 0 0 0-4H8a2 2 0 0 0 0 4 1 1 0 0 1 1 1z"/>
  </symbol>

  <symbol id="play" viewBox="0 0 24 24" fill="none" stroke="currentColor" stroke-width="2" stroke-linecap="round" stroke-linejoin="round">
    <polygon points="6 3 20 12 6 21 6 3"></polygon>
  </symbol>

  <symbol id="plus" viewBox="0 0 24 24" fill="none" stroke="currentColor" stroke-width="2" stroke-linecap="round" stroke-linejoin="round">
    <path d="M5 12h14"></path><path d="M12 5v14"></path>
  </symbol>

  <symbol id="save" viewBox="0 0 24 24" fill="none">
    <path d="M19 21H5a2 2 0 0 1-2-2V5a2 2 0 0 1 2-2h11l5 5v11a2 2 0 0 1-2 2z" stroke="currentColor" stroke-width="1.5" stroke-linecap="round" stroke-linejoin="round"/><polyline points="17 21 17 13 7 13 7 21" stroke="currentColor" stroke-width="1.5" stroke-linecap="round" stroke-linejoin="round"/><polyline points="7 3 7 8 15 8" stroke="currentColor" stroke-width="1.5" stroke-linecap="round" stroke-linejoin="round"/>
  </symbol>

  <symbol id="search" viewBox="0 0 24 24" fill="none">
    <path d="M11 19C15.4183 19 19 15.4183 19 11C19 6.58172 15.4183 3 11 3C6.58172 3 3 6.58172 3 11C3 15.4183 6.58172 19 11 19Z" stroke="currentColor" stroke-width="2" stroke-linecap="round" stroke-linejoin="round"/><path d="M21 21L16.65 16.65" stroke="currentColor" stroke-width="2" stroke-linecap="round" stroke-linejoin="round"/>
  </symbol>

  <symbol id="send" viewBox="0 0 24 24" fill="none">
    <path d="M22 2L11 13" stroke="currentColor" stroke-width="2" stroke-linecap="round" stroke-linejoin="round"/><path d="M22 2L15 22L11 13L2 9L22 2Z" stroke="currentColor" stroke-width="2" stroke-linecap="round" stroke-linejoin="round"/>
  </symbol>

  <symbol id="settings" viewBox="0 0 20 20" fill="none">
    <path d="M10.1833 1.66669H9.81667C9.37464 1.66669 8.95072 1.84228 8.63815 2.15484C8.32559 2.4674 8.15 2.89133 8.15 3.33335V3.48335C8.1497 3.77562 8.07255 4.06268 7.92628 4.31572C7.78002 4.56876 7.56978 4.77888 7.31667 4.92502L6.95833 5.13335C6.70497 5.27963 6.41756 5.35664 6.125 5.35664C5.83244 5.35664 5.54503 5.27963 5.29167 5.13335L5.16667 5.06669C4.78422 4.84607 4.32986 4.78622 3.90333 4.90028C3.47681 5.01433 3.11296 5.29297 2.89167 5.67502L2.70833 5.99169C2.48772 6.37413 2.42787 6.82849 2.54192 7.25502C2.65598 7.68155 2.93461 8.04539 3.31667 8.26669L3.44167 8.35002C3.69356 8.49545 3.90302 8.70426 4.04921 8.95571C4.1954 9.20716 4.27324 9.4925 4.275 9.78335V10.2084C4.27617 10.502 4.19971 10.7908 4.05337 11.0454C3.90703 11.3001 3.69601 11.5115 3.44167 11.6584L3.31667 11.7334C2.93461 11.9546 2.65598 12.3185 2.54192 12.745C2.42787 13.1716 2.48772 13.6259 2.70833 14.0084L2.89167 14.325C3.11296 14.7071 3.47681 14.9857 3.90333 15.0998C4.32986 15.2138 4.78422 15.154 5.16667 14.9334L5.29167 14.8667C5.54503 14.7204 5.83244 14.6434 6.125 14.6434C6.41756 14.6434 6.70497 14.7204 6.95833 14.8667L7.31667 15.075C7.56978 15.2212 7.78002 15.4313 7.92628 15.6843C8.07255 15.9374 8.1497 16.2244 8.15 16.5167V16.6667C8.15 17.1087 8.32559 17.5326 8.63815 17.8452C8.95072 18.1578 9.37464 18.3334 9.81667 18.3334H10.1833C10.6254 18.3334 11.0493 18.1578 11.3618 17.8452C11.6744 17.5326 11.85 17.1087 11.85 16.6667V16.5167C11.8503 16.2244 11.9275 15.9374 12.0737 15.6843C12.22 15.4313 12.4302 15.2212 12.6833 15.075L13.0417 14.8667C13.295 14.7204 13.5824 14.6434 13.875 14.6434C14.1676 14.6434 14.455 14.7204 14.7083 14.8667L14.8333 14.9334C15.2158 15.154 15.6701 15.2138 16.0967 15.0998C16.5232 14.9857 16.887 14.7071 17.1083 14.325L17.2917 14C17.5123 13.6176 17.5721 13.1632 17.4581 12.7367C17.344 12.3102 17.0654 11.9463 16.6833 11.725L16.5583 11.6584C16.304 11.5115 16.093 11.3001 15.9466 11.0454C15.8003 10.7908 15.7238 10.502 15.725 10.2084V9.79169C15.7238 9.498 15.8003 9.20923 15.9466 8.9546C16.093 8.69997 16.304 8.48853 16.5583 8.34169L16.6833 8.26669C17.0654 8.04539 17.344 7.68155 17.4581 7.25502C17.5721 6.82849 17.5123 6.37413 17.2917 5.99169L17.1083 5.67502C16.887 5.29297 16.5232 5.01433 16.0967 4.90028C15.6701 4.78622 15.2158 4.84607 14.8333 5.06669L14.7083 5.13335C14.455 5.27963 14.1676 5.35664 13.875 5.35664C13.5824 5.35664 13.295 5.27963 13.0417 5.13335L12.6833 4.92502C12.4302 4.77888 12.22 4.56876 12.0737 4.31572C11.9275 4.06268 11.8503 3.77562 11.85 3.48335V3.33335C11.85 2.89133 11.6744 2.4674 11.3618 2.15484C11.0493 1.84228 10.6254 1.66669 10.1833 1.66669Z" stroke="currentColor" stroke-width="1.66667" stroke-linecap="round" stroke-linejoin="round"/><path d="M10 12.5C11.3807 12.5 12.5 11.3807 12.5 10C12.5 8.61929 11.3807 7.5 10 7.5C8.61929 7.5 7.5 8.61929 7.5 10C7.5 11.3807 8.61929 12.5 10 12.5Z" stroke="currentColor" stroke-width="1.66667" stroke-linecap="round" stroke-linejoin="round"/>
  </symbol>

  <symbol id="sidebar-collapse" viewBox="0 0 24 24" fill="none">
    <rect x="3" y="3" width="18" height="18" rx="2" ry="2" stroke="currentColor" stroke-width="1.5" stroke-linecap="round" stroke-linejoin="round"/><line x1="9" y1="3" x2="9" y2="21" stroke="currentColor" stroke-width="1.5" stroke-linecap="round" stroke-linejoin="round"/><polyline points="15 9 12 12 15 15" stroke="currentColor" stroke-width="1.5" stroke-linecap="round" stroke-linejoin="round"/>
  </symbol>

  <symbol id="sidebar-expand" viewBox="0 0 24 24" fill="none">
    <rect x="3" y="3" width="18" height="18" rx="2" ry="2" stroke="currentColor" stroke-width="1.5" stroke-linecap="round" stroke-linejoin="round"/><line x1="9" y1="3" x2="9" y2="21" stroke="currentColor" stroke-width="1.5" stroke-linecap="round" stroke-linejoin="round"/><polyline points="12 9 15 12 12 15" stroke="currentColor" stroke-width="1.5" stroke-linecap="round" stroke-linejoin="round"/>
  </symbol>

  <symbol id="sliders-vertical" viewBox="0 0 24 24" fill="none" stroke="currentColor" stroke-width="2" stroke-linecap="round" stroke-linejoin="round">
    <line x1="4" x2="4" y1="21" y2="14"></line><line x1="4" x2="4" y1="10" y2="3"></line><line x1="12" x2="12" y1="21" y2="12"></line><line x1="12" x2="12" y1="8" y2="3"></line><line x1="20" x2="20" y1="21" y2="16"></line><line x1="20" x2="20" y1="12" y2="3"></line><line x1="2" x2="6" y1="14" y2="14"></line><line x1="10" x2="14" y1="8" y2="8"></line><line x1="18" x2="22" y1="16" y2="16"></line>
  </symbol>

  <symbol id="star" viewBox="0 0 20 20" fill="none">
    <path d="M9.60416 1.91249C9.64068 1.83871 9.6971 1.7766 9.76704 1.73318C9.83698 1.68976 9.91767 1.66675 9.99999 1.66675C10.0823 1.66675 10.163 1.68976 10.233 1.73318C10.3029 1.7766 10.3593 1.83871 10.3958 1.91249L12.3208 5.81166C12.4476 6.0683 12.6348 6.29033 12.8663 6.4587C13.0979 6.62707 13.3668 6.73675 13.65 6.77833L17.955 7.40833C18.0366 7.42014 18.1132 7.45455 18.1762 7.50766C18.2393 7.56076 18.2862 7.63045 18.3117 7.70883C18.3372 7.78721 18.3402 7.87116 18.3205 7.95119C18.3007 8.03121 18.259 8.10412 18.2 8.16166L15.0867 11.1933C14.8813 11.3934 14.7277 11.6404 14.639 11.913C14.5503 12.1856 14.5292 12.4757 14.5775 12.7583L15.3125 17.0417C15.3269 17.1232 15.3181 17.2071 15.2871 17.2839C15.2561 17.3607 15.2041 17.4272 15.1371 17.4758C15.0701 17.5245 14.9908 17.5533 14.9082 17.5591C14.8256 17.5648 14.7431 17.5472 14.67 17.5083L10.8217 15.485C10.5681 15.3518 10.286 15.2823 9.99958 15.2823C9.71318 15.2823 9.43106 15.3518 9.17749 15.485L5.32999 17.5083C5.25694 17.547 5.17449 17.5644 5.09204 17.5585C5.00958 17.5527 4.93043 17.5238 4.86357 17.4752C4.79672 17.4266 4.74485 17.3601 4.71387 17.2835C4.68289 17.2069 4.67404 17.1231 4.68833 17.0417L5.42249 12.7592C5.47099 12.4764 5.44998 12.1862 5.36128 11.9134C5.27257 11.6406 5.11883 11.3935 4.91333 11.1933L1.79999 8.16249C1.74049 8.10502 1.69832 8.03199 1.6783 7.95172C1.65827 7.87145 1.66119 7.78717 1.68673 7.70848C1.71226 7.6298 1.75938 7.55986 1.82272 7.50665C1.88607 7.45343 1.96308 7.41907 2.04499 7.40749L6.34916 6.77833C6.63271 6.73708 6.90199 6.62754 7.13381 6.45915C7.36564 6.29076 7.55308 6.06855 7.67999 5.81166L9.60416 1.91249Z" stroke="currentColor" stroke-width="1.66667" stroke-linecap="round" stroke-linejoin="round"/>
  </symbol>

  <symbol id="sun" viewBox="0 0 24 24" fill="none" stroke="currentColor" stroke-width="2" stroke-linecap="round" stroke-linejoin="round">
    <circle cx="12" cy="12" r="5"/><line x1="12" y1="1" x2="12" y2="3"/><line x1="12" y1="21" x2="12" y2="23"/><line x1="4.22" y1="4.22" x2="5.64" y2="5.64"/><line x1="18.36" y1="18.36" x2="19.78" y2="19.78"/><line x1="1" y1="12" x2="3" y2="12"/><line x1="21" y1="12" x2="23" y2="12"/><line x1="4.22" y1="19.78" x2="5.64" y2="18.36"/><line x1="18.36" y1="5.64" x2="19.78" y2="4.22"/>
  </symbol>

  <symbol id="support" viewBox="0 0 24 24" fill="none">
    <circle cx="12" cy="12" r="10" stroke="currentColor" stroke-width="1.5" stroke-linecap="round" stroke-linejoin="round"/><circle cx="12" cy="12" r="4" stroke="currentColor" stroke-width="1.5" stroke-linecap="round" stroke-linejoin="round"/><line x1="4.93" y1="4.93" x2="9.17" y2="9.17" stroke="currentColor" stroke-width="1.5" stroke-linecap="round" stroke-linejoin="round"/><line x1="14.83" y1="14.83" x2="19.07" y2="19.07" stroke="currentColor" stroke-width="1.5" stroke-linecap="round" stroke-linejoin="round"/><line x1="14.83" y1="9.17" x2="19.07" y2="4.93" stroke="currentColor" stroke-width="1.5" stroke-linecap="round" stroke-linejoin="round"/><line x1="14.83" y1="9.17" x2="18.36" y2="5.64" stroke="currentColor" stroke-width="1.5" stroke-linecap="round" stroke-linejoin="round"/><line x1="4.93" y1="19.07" x2="9.17" y2="14.83" stroke="currentColor" stroke-width="1.5" stroke-linecap="round" stroke-linejoin="round"/>
  </symbol>

  <symbol id="target" viewBox="0 0 24 24" fill="none" stroke="currentColor" stroke-width="2" stroke-linecap="round" stroke-linejoin="round">
    <circle cx="12" cy="12" r="10"></circle><circle cx="12" cy="12" r="6"></circle><circle cx="12" cy="12" r="2"></circle>
  </symbol>

  <symbol id="trash" viewBox="0 0 24 24" fill="none" stroke="currentColor" stroke-width="2" stroke-linecap="round" stroke-linejoin="round">
    <path d="M3 6h18"></path><path d="M19 6v14c0 1-1 2-2 2H7c-1 0-2-1-2-2V6"></path><path d="M8 6V4c0-1 1-2 2-2h4c1 0 2 1 2 2v2"></path>
  </symbol>

  <symbol id="trend-up" viewBox="0 0 24 24" fill="none" stroke="currentColor" stroke-width="2" stroke-linecap="round" stroke-linejoin="round">
    <polyline points="22 7 13.5 15.5 8.5 10.5 2 17"></polyline><polyline points="16 7 22 7 22 13"></polyline>
  </symbol>

  <symbol id="user" viewBox="0 0 24 24" fill="none">
    <path d="M20 21v-2a4 4 0 0 0-4-4H8a4 4 0 0 0-4 4v2" stroke="currentColor" stroke-width="1.5" stroke-linecap="round" stroke-linejoin="round"/><circle cx="12" cy="7" r="4" stroke="currentColor" stroke-width="1.5" stroke-linecap="round" stroke-linejoin="round"/>
  </symbol>

  <symbol id="users" viewBox="0 0 24 24" fill="none" stroke="currentColor" stroke-width="2" stroke-linecap="round" stroke-linejoin="round">
    <path d="M16 21v-2a4 4 0 0 0-4-4H6a4 4 0 0 0-4 4v2"/><circle cx="9" cy="7" r="4"/><path d="M22 21v-2a4 4 0 0 0-3-3.87"/><path d="M16 3.13a4 4 0 0 1 0 7.75"/>
  </symbol>

  <symbol id="video-call" viewBox="0 0 16 16" fill="none">
    <path d="M10.6666 8.66652L14.1486 10.9879C14.1988 11.0213 14.2571 11.0404 14.3174 11.0433C14.3776 11.0462 14.4375 11.0327 14.4906 11.0042C14.5438 10.9758 14.5882 10.9334 14.6192 10.8817C14.6502 10.83 14.6666 10.7708 14.6666 10.7105V5.24652C14.6666 5.18787 14.6512 5.13025 14.6218 5.07948C14.5924 5.02872 14.5502 4.9866 14.4993 4.95738C14.4485 4.92817 14.3908 4.91289 14.3322 4.91309C14.2735 4.91329 14.2159 4.92896 14.1653 4.95852L10.6666 6.99985" stroke="currentColor" stroke-width="1.33333" stroke-linecap="round" stroke-linejoin="round"/><path d="M9.33337 4H2.66671C1.93033 4 1.33337 4.59695 1.33337 5.33333V10.6667C1.33337 11.403 1.93033 12 2.66671 12H9.33337C10.0698 12 10.6667 11.403 10.6667 10.6667V5.33333C10.6667 4.59695 10.0698 4 9.33337 4Z" stroke="currentColor" stroke-width="1.33333" stroke-linecap="round" stroke-linejoin="round"/>
  </symbol>

  <symbol id="waitlist" viewBox="0 0 20 20" fill="none">
    <path d="M12.5 1.66666H7.5C7.03976 1.66666 6.66667 2.03975 6.66667 2.49999V4.16666C6.66667 4.62689 7.03976 4.99999 7.5 4.99999H12.5C12.9602 4.99999 13.3333 4.62689 13.3333 4.16666V2.49999C13.3333 2.03975 12.9602 1.66666 12.5 1.66666Z" stroke="currentColor" stroke-width="1.66667" stroke-linecap="round" stroke-linejoin="round"/><path d="M13.3333 3.33334H15C15.442 3.33334 15.866 3.50894 16.1785 3.8215C16.4911 4.13406 16.6667 4.55798 16.6667 5.00001V16.6667C16.6667 17.1087 16.4911 17.5326 16.1785 17.8452C15.866 18.1577 15.442 18.3333 15 18.3333H5C4.55797 18.3333 4.13405 18.1577 3.82149 17.8452C3.50893 17.5326 3.33333 17.1087 3.33333 16.6667V5.00001C3.33333 4.55798 3.50893 4.13406 3.82149 3.8215C4.13405 3.50894 4.55797 3.33334 5 3.33334H6.66667" stroke="currentColor" stroke-width="1.66667" stroke-linecap="round" stroke-linejoin="round"/><path d="M10 9.16666H13.3333" stroke="currentColor" stroke-width="1.66667" stroke-linecap="round" stroke-linejoin="round"/><path d="M10 13.3333H13.3333" stroke="currentColor" stroke-width="1.66667" stroke-linecap="round" stroke-linejoin="round"/><path d="M6.66667 9.16666H6.675" stroke="currentColor" stroke-width="1.66667" stroke-linecap="round" stroke-linejoin="round"/><path d="M6.66667 13.3333H6.675" stroke="currentColor" stroke-width="1.66667" stroke-linecap="round" stroke-linejoin="round"/>
  </symbol>

  <symbol id="warning" viewBox="0 0 24 24" fill="none">
    <path d="M10.29 3.86L1.82 18a2 2 0 0 0 1.71 3h16.94a2 2 0 0 0 1.71-3L13.71 3.86a2 2 0 0 0-3.42 0z" stroke="currentColor" stroke-width="2" stroke-linecap="round" stroke-linejoin="round"/><line x1="12" y1="9" x2="12" y2="13" stroke="currentColor" stroke-width="2" stroke-linecap="round" stroke-linejoin="round"/><line x1="12" y1="17" x2="12.01" y2="17" stroke="currentColor" stroke-width="2" stroke-linecap="round" stroke-linejoin="round"/>
  </symbol>

  <symbol id="watch" viewBox="0 0 24 24" fill="none" stroke="currentColor" stroke-width="2" stroke-linecap="round" stroke-linejoin="round">
    <circle cx="12" cy="12" r="6"></circle><polyline points="12 10 12 12 13 13"></polyline><path d="m16.13 7.66-.81-4.05a2 2 0 0 0-2-1.61h-2.68a2 2 0 0 0-2 1.61l-.78 4.05"></path><path d="m7.88 16.36.8 4a2 2 0 0 0 2 1.61h2.72a2 2 0 0 0 2-1.61l.81-4.05"></path>
  </symbol>

  <symbol id="workflow" viewBox="0 0 16 16" fill="none">
    <g clip-path="url(#clip0_7_788)"><path d="M7.33333 14.4867C7.53603 14.6037 7.76595 14.6653 8 14.6653C8.23405 14.6653 8.46397 14.6037 8.66667 14.4867L13.3333 11.82C13.5358 11.7031 13.704 11.535 13.821 11.3326C13.938 11.1301 13.9998 10.9005 14 10.6667V5.33335C13.9998 5.09953 13.938 4.86989 13.821 4.66746C13.704 4.46503 13.5358 4.29692 13.3333 4.18002L8.66667 1.51335C8.46397 1.39633 8.23405 1.33472 8 1.33472C7.76595 1.33472 7.53603 1.39633 7.33333 1.51335L2.66667 4.18002C2.46418 4.29692 2.29599 4.46503 2.17897 4.66746C2.06196 4.86989 2.00024 5.09953 2 5.33335V10.6667C2.00024 10.9005 2.06196 11.1301 2.17897 11.3326C2.29599 11.535 2.46418 11.7031 2.66667 11.82L7.33333 14.4867Z" stroke="currentColor" stroke-width="1.33333" stroke-linecap="round" stroke-linejoin="round"/><path d="M8 14.6667V8" stroke="currentColor" stroke-width="1.33333" stroke-linecap="round" stroke-linejoin="round"/><path d="M2.19336 4.66663L8.00003 7.99996L13.8067 4.66663" stroke="currentColor" stroke-width="1.33333" stroke-linecap="round" stroke-linejoin="round"/><path d="M5 2.84668L11 6.28001" stroke="currentColor" stroke-width="1.33333" stroke-linecap="round" stroke-linejoin="round"/></g><defs><clipPath id="clip0_7_788"><rect width="16" height="16" fill="white"/></clipPath></defs>
  </symbol>

  <symbol id="wrench" viewBox="0 0 24 24" fill="none" stroke="currentColor" stroke-width="2" stroke-linecap="round" stroke-linejoin="round">
    <path d="M14.7 6.3a1 1 0 0 0 0 1.4l1.6 1.6a1 1 0 0 0 1.4 0l3.77-3.77a6 6 0 0 1-7.94 7.94l-6.91 6.91a2.12 2.12 0 0 1-3-3l6.91-6.91a6 6 0 0 1 7.94-7.94l-3.76 3.76z"></path>
  </symbol>


</svg>